<?xml version="1.0" encoding="UTF-8"?>
<svg id="Ebene_2" data-name="Ebene 2" xmlns="http://www.w3.org/2000/svg" viewBox="0 0 371.9 376.11">
  <defs>
    <style>
      .cls-1 {
        fill: none;
      }
    </style>
  </defs>
  <g id="Ebene_2-2" data-name="Ebene 2">
    <g>
      <path class="cls-1" d="M215.73,372.59c-2.44.59-12.21,3.36-13.33,3.37l-19.34.15c-2.52.02-4.84-.07-7.32-.37l-9.41-1.14c-2.4-.29-7.69-1.82-9.91-2.9-8.04-3.91-11.16-1.42-19.18-6.23-2.99-1.8-5.76-3.58-9.02-4.92-3.08-1.26-5.94-2.74-9.2-3.64-17.57-4.84-20.39-12.49-33.12-17.99-5.11-2.21-9.41-5.13-13.9-8.35-5.77-4.14-10.86-8.71-15.9-13.65-1.58-1.55-3.09-2.9-4.56-4.53l-3.5-3.87c-2.54-2.81-5.43-5.18-7.54-8.39-1.51-2.29-4.15-8.03-3.74-7.44-3.05-4.4-5.62-8.84-7.77-13.79l-2.97-6.81c-1.24-2.84-7.86-6.47-13.35-19.63-1.63-3.89-3.4-7.55-4.76-11.53-1.33-3.89-1.83-7.82-2.91-11.75-.68-2.46-1.12-4.9-1.27-7.46-.53-9.09-2.44-13.01-2.92-21.67l-.31-5.59-.24-15.83c-.11-7.31-.84-22.28.78-28.82l4.55-18.38,4.43-15.67c.98-3.47,2.14-7.3,4.02-10.29,1.75-2.79,2.84-6.79,5.09-9.51,3.94-4.77,7.03-9.85,10.33-15.06l5.93-9.35c.91-1.44,1.87-2.76,2.87-4.17l6.64-9.33,4.35-4.71c3.7-4,2.56-5.58,6.13-7.47,2.49-1.32,4.57-3.23,6.84-4.96,3.57-2.72,7.03-5.23,10.89-7.54,2.93-1.76,5.62-3.74,8.84-5.09,5.47-2.28,10.62-4.8,15.76-7.84,2.63-1.55,5.11-3.01,7.83-4.38l18.49-9.32c4.24-2.14,8.44-3.4,13.11-3.98l16.33-2.03c.94-.12,1.9-.33,2.82-.34l24.85-.21L219.91,0c3.11-.02,5.74,1.48,8.65,2.1,2.1.45,3.91,1.45,5.92,2.1,2.01.66,4.11.66,6.14,1.19,2.26.59,4.3,1.59,6.58,2.06,1.31.27,5.98,2.09,6.77,2.62,2.8,1.89,6.04,2.42,8.96,4,7.37,4,14.6,7.66,22.25,11.13,2.79,1.26,5.13,3.18,7.79,4.77,6.3,3.79,11.89,8.33,17.81,12.8,1.96,1.48,4.46,5.46,7.17,7.74,1.53,1.29,2.86,2.76,4.05,4.27l2.48,3.15c3.27,4.16,11.08,9.97,18.64,22.69.72,1.21,1.89,2.71,2.11,4.08.53,3.36.91,6.5,2.34,9.64l5.89,12.9c1.96,4.29,4.7,8.17,5.47,12.83l2.15,12.94.87,5.07c1.13,6.56,3.3,12.67,5.87,18.77-1.03.67-.69,1.33-.42,2.15l1.95,5.97c.96,2.93,1.37,5.98,1.72,9.06l.75,6.56.08,21.14c0,.99-.31,2.09-.52,3.02l-2.98,13.34-2.38,8.04-5.2,22.58c-.5,2.17-.6,4.17-1.45,6.24-.96,2.32-1.81,4.67-2.75,7l-3.3,8.18c-.69,1.71-5.84,9.31-7.44,10.54-2.06,1.58-3.2,3.28-4.55,5.38-3.86,6.04-9.83,9.16-13.89,14.22-1.97,2.45-3.9,4.86-6.06,7.14-1.93,2.04-3.78,3.89-4.94,6.52-3.03,1.46-5.46,3.5-7.82,5.77l-6.04,5.78c-1.44,1.38-3.02,2.52-4.46,3.97-5.6,5.62-11.35,10.76-17.56,15.74l-5.63,4.51-5.33,4.01c-1.86,1.4-3.92,2.4-6.19,2.89-3.95.85-7.54,2.27-11.36,3.52-3.26,1.07-6.3,1.92-9.3,3.66-1.17.68-2.58,1.07-3.86,1.68-4.65,2.24-9.39,3.84-14.43,5.05l-8.71,2.1Z"/>
      <path class="cls-1" d="M178.77,269.47l-9.34-1.15-3.76-.4c-2.9-.31-5.59-.29-8.39-1.07l-12.02-3.35c-6.26-1.74-20.17-9.72-23.75-14.83-3.65-5.21-4-6.75-7.29-11.8l-4.41-6.76c-2.17-3.32-3.32-7.02-5.08-10.6s-3.61-6.47-5.51-9.79c-3.25-5.67-5.24-11.79-6.78-18.2-.7-2.91-.65-10.89-.39-14.01.19-2.31.77-4.52.84-6.8l.13-4.44c.2-6.89,2.44-16.74,4.43-23.44,1.2-4.04,3.15-7.66,4.62-11.61,1.78-4.78,3.5-9.34,6.13-13.74l7.93-8.05,1.71-1.77c2.37-2.46,7.76-6.75,10.66-8.53,4.32-2.65,16.14-9.31,21.15-8.28,1.66-1.64,3.82-1.39,5.86-1.98l4.3-1.23c.47-.13,12.64-1.61,12.53-1.61,6.47-.18,12.81-.3,19.23.05,6.36.35,12.33,1.47,18.01,4.29,1.8.89,3.41,2.04,5.38,2.6,4.53,1.29,8.7,3.17,13.03,4.96,5.19,2.15,4.98,2.16,9.81,5.57,8.8,6.22,9.16,9.45,15.19,15.41,1.53,1.51,3.48,2.59,4.83,4.27,1.92,2.38,3.8,4.64,5.97,6.89,1.57,1.63,3.81,5.99,6.97,9.4,2.12,2.29,3.04,5.47,4.15,8.33,1.08,2.78,2.99,4.79,4.64,7.18,3.48,5.02,2.08,6.07,2.23,13.07l.22,10.55c.1,4.83.58,11.79-.26,16.5-.72,4.03-2.44,7.57-3.93,11.31l-3.18,7.98-6.77,13.03c-2,3.86-4.28,7.38-7.18,10.55-1.1,1.2-2.46,2.26-3.39,3.59-2.94,4.2-6.27,7.86-10.92,10.37l-10.78,5.83c-4.14,2.24-8.29,3.65-12.7,5.13-4.06,1.36-7.83,2.75-12.05,3.57-4.55.88-8.9,2.07-13.53,2.72-3.28.46-15.51.67-18.52.29Z"/>
    </g>
  </g>
</svg>