<?xml version="1.0" encoding="UTF-8"?>
<svg id="Ebene_2" data-name="Ebene 2" xmlns="http://www.w3.org/2000/svg" viewBox="0 0 332.83 238.41">
  <defs>
    <style>
      .cls-1 {
        fill: none;
      }
    </style>
  </defs>
  <g id="Ebene_2-2" data-name="Ebene 2">
    <path class="cls-1" d="M303.77,235.59c-2.98.54-13.39,2.82-15.57,2.82h-59.15c-4.18-.01-7.94-1.46-12.02-1.56l-7.88-.2c-.81-.02-1.67-.02-2.38-.02h-2.79c-1.06.01-1.88-.03-2.86-.04h-2.78s-2.84.01-2.84.01c-.98,0-2.04,0-3.02,0l-2.84-.02h-2.78c-.97,0-1.83.05-2.85.04l-3.09-.05c-3.36-.06-10.25.4-13.88.82-.98.12-2.18.36-3.15.37l-21.77.22-73.63.07c-3.25,0-6.28-.4-9.42-.48l-10.83-.29-6.25-.34-11.49-.34c2.11.06-20-2.29-18.35-2.01-4.13-.7-5.99-3.53-5.95-7.69.02-1.67-1.11-3.62-1.23-5.52-.21-3.44.34-6.84-.19-10.24l-2.23-14.34-.28-4.23-.22-12.45c-.02-1.03-.48-5.18-.59-7.68l-.17-3.73c-.04-.95-.13-1.62-.13-2.56l-.15-29.73c-.01-2.06-.68-4-.58-6.02.11-2.2-.85-11.48-.26-14.76l.8-4.47.25-37.71,1.22-5.38.21-37.36,1.39-12.84c.13-1.23-.13-2.38.06-3.6l.7-4.68c.44-2.92,1.45-4.87,3.75-6.43C9.98,2.2,10.83,0,13.07,0h84.31s3.22.42,3.22.42l11.11,1.56,3.88.35c5.54.5,11.05.51,16.55-.09l14.02-1.52,5.54-.18,2.5-.15,21.38-.03c2.38,0,5.92.57,6.81.58l38.41.24,32.37.11,6.19-.91,47.71-.07c1.94.66,3.81.28,5.71.78,3.96,1.04,7.92,1.7,11.9,2.22,2.3.3,3.39,2.03,4.25,3.8.65,1.33,1.25,2.36,1.39,3.9l.9,9.49,1.6,10.48-.07,35.59-.33,34.38-.22,11.3c-.02,1.15-.58,2.27-.3,3.5.08.37-.93,13.3-.97,14.95l-.16,6.61-.04,2.71c-.02,1.05-.02,1.89-.03,2.84l-.05,3.07c-.04,2.27-.02,3.72.13,5.95l.36,5.59-.05,23.86-1.52,10.56-.34,4.51-.36,6.6-.37,5.92c-.12,1.87-.24,5.22-.24,6.95v2.79s-.01,2.86-.01,2.86c-.02,4.5.53,5.11-1.31,8.43-1.54,2.78-3.67,3.9-6.94,3.77-2.75-.1-12.74,1.22-16.22,1.85Z"/>
  </g>
</svg>