<?xml version="1.0" encoding="UTF-8"?>
<svg id="Ebene_2" data-name="Ebene 2" xmlns="http://www.w3.org/2000/svg" viewBox="0 0 443.56 240.29">
  <defs>
    <style>
      .cls-1 {
        fill: none;
      }
    </style>
  </defs>
  <g id="Ebene_2-2" data-name="Ebene 2">
    <path class="cls-1" d="M133.15,240.19l-5.75-.33c-11.12-.64-14.82-6.86-18.74-8.68-2.32-1.07-10.24-7.13-11.23-10-1.54-.69-10.67-3.03-11.57-3.05l-10.54-.29-5.94-.28c-5.93-.28-11.78-5.92-16.27-9.55l-7.33-5.91c-2.63-2.12-5.45-3.81-8.3-5.65l-7.81-5.03c-1.91-1.23-3.77-1.93-6.02-2.44-5.79-1.32-11-4.11-15.96-7.24l-2.56-1.61c-3.68-2.32-4.28-5.1-5.04-9.39-.32-1.82.1-3.06.63-4.78.64-2.11.25-4.62,1.4-6.6,1.35-2.32,2.26-4.7,3.44-7.11s2.84-4.74,4.34-7.05c2.76-4.24,8.14-6.59,12.54-8.42,6.55-2.73,13.46-3.66,20.41-4.97l6.46-1.21,13.98-1.78c1.26-.16,2.3-.22,3.5-.16l2.52.12c3.08.15,6.18.26,9.28.02,2.61-.2,5.01-1.27,7.58-1.72,3.25-.58,10.67-1.03,11.84-1.41,2.8-.9,5.43-2.11,8.35-2.77,2.44-.55,4.95-.84,7.15-2.32,7.16-4.8,14.73-8.37,22.27-12.56,6.5-3.62,12.68-7.02,19.47-10.09l9.11-4.11,13.24-4.92,17.32-6.69,8.31-3.86c3.91-1.82,7.6-3.58,11.39-5.62,1.54-.83,3.14-1.59,4.72-2.29l8.18-3.62c8.09-3.58,14.77-9.11,22.32-12.5,2.88-1.29,5.76-2.04,8.44-3.82,6.47-4.31,13.34-6.09,17.89-8.91l11.63-7.19c4.57-2.82,8.44-6.3,12.68-9.61,3.44-2.69,6.8-5.08,9.67-8.44,1.7-1.99,3.42-4.05,5.56-5.54,3.41-2.39,6.51-5.01,10.25-6.78,2.97-1.41,5.9-2.68,9.16-3.4,9.85-2.19,12.5,1.94,20.87,5.35l9.91,4.03c1.72.7,3.2,2.16,5.12,2.45,1.18.18,2.21.58,3.28.87,3.46.95,6.11,4.29,7.06,7.37l1.39,4.49c.51,1.64.15,3.19.35,4.9.92,7.89-.08,10.2-2.12,17.4l-3.61,12.72-3.84,12.81c-.99,3.31-1,6.81-1.22,10.27l-.25,3.89c-.27,4.16-.5,9.37,1.4,13.08.76,1.48.69,3.53,1.85,4.76,2.35,2.49,9.51,2.06,12.99,1.89,1.75-.08,3.28-1.21,4.94-1.54l9.33-1.84c1.88-.37,3.78.14,5.56.24,2.37.12,3.79,1.33,5.42,2.69,4.09,3.41,5.13,8.23,5.12,13.46,0,1.43.32,2.95.45,4.38.36,3.95.38,7.72-.5,11.61-.31,1.4-.86,3.6-.08,4.93,2.05,3.52,4.48,6.61,6.72,10,1.49,2.26,3.81,3.61,5.93,5.19,2.41,1.79,4.41,4,6.94,5.56,4.86,2.98,5.68,7.85,5.37,12.93-.21,3.5-2.68,6.92-5.39,8.79l-2.85,1.96c-1.8,1.24-3.85,1.98-5.83,2.87-4.2,1.88-8.33,2.4-12.89,2.49-9.54.19-31.23-4.97-38.87-9.97l-10.12-6.62c-2.51-1.64-6.07-2.46-9.18-2.54-7.67-.18-15-.23-22.68,0-5.95.17-11.53,1.75-17.4,2.65s-10.72,2.44-16.04,4.18l-13.9,4.54-10.46,3.18-11.9,4.41c-7.23,2.68-14.19,5.22-21.22,8.33-3.76,1.67-7.43,2.97-10.94,5.1l-6.95,4.21c-2.2,1.33-4.98,1.42-7.37,2.39-4.34,1.76-8.51,3.34-12.96,4.81-5.96,1.97-11.29,4.84-17.01,7.34l-6.61,2.88c-3.95,1.73-7.77,3.67-11.43,5.94-3.44,2.14-6.49,4.41-10.47,5.58-7.95,2.35-19.18,3.66-27.88,3.17Z"/>
  </g>
</svg>