<?xml version="1.0" encoding="UTF-8"?>
<svg id="Ebene_2" data-name="Ebene 2" xmlns="http://www.w3.org/2000/svg" viewBox="0 0 490.51 285.38">
  <defs>
    <style>
      .cls-1 {
        fill: none;
      }
    </style>
  </defs>
  <g id="Ebene_2-2" data-name="Ebene 2">
    <path class="cls-1" d="M281.32,183.31c-7.63,5.12-18.41,6.13-28.22,9.72-5.07,1.86-9.81,3.93-15.23,4.71-3.02.44-4.95,4.61-10.15,2.38l-4.89-2.1c-10.19-4.37-14.66-12.28-10.81-22.64,1.54-4.13,4.26-7.48,6.42-11.28.8-1.4.99-3.07,1.69-4.55l3.6-7.56c2.31-4.84,4.46-9.62,7.65-13.94,1.89-2.55,3.85-4.8,5.16-7.94-3.16,1.43-6.48,2.61-8.67,5.21l-6,7.11-7.09,5.71c-1.29,1.03-2.05,2.87-3.67,3.56-1.71.72-3.45,1.12-5.14,1.86l-10.5,4.61c-6.57,2.88-12.68,5.94-19.72,7.63-5.99,1.44-11.64,3.18-17.37,5.37s-21.56,4.54-27.92,5.29c-4.38.52-6.61,1.78-10.11,1.83l-14.61.22-2.72.07h-3.1s-3.09,0-3.09,0c-1.94,0-4.02.02-5.92.08l-6.4.23c-1.14.04-2.04.17-3.15.16h-3.07c-1.14,0-2.19-.1-3.33-.04l-2.41.13c-4.82.26-9.46,1.32-14.35,1.43-7.36.16-14.61.44-21.88-.11-4.04-.3-7.63-1.14-11.75-1.06-3.67.06-7.4-.97-11-1.65-1.81-.34-3.51-1.68-5.05-2.55-4.03-2.26-9.45-8.55-8.41-13.15.52-2.3.03-5.04,1.39-7.17,5.33-8.31,7.69-7.15,11.99-12.3,1.28-1.53,2.88-2.48,4.39-3.69l5.58-4.48c3.09-2.48,6.9-3.53,10.26-5.61,5.04-3.11,10.06-5.42,15.83-6.95l15.48-4.12c5.54-1.47,10.85-2.72,16.27-4.6,4.67-1.62,9.31-2.61,14.03-3.24,3.72-2.21,9.95-5.49,13.72-6.91l20.1-7.6c2.8-1.06,4.02-3.12,5.51-5.44,1.87-2.92,5.28-4.56,7.94-6.61,3.36-2.6,15.28-6.25,19.83-6.31l13.17-.17c1.25-.02,2.33.28,3.52.35,4.65.27,9.24-.09,13.79,1.47,8.61.38,16.88,2.38,24.53,6.63,4.17,1.06,8.51,2.33,11.67,5.25,6.1,5.65,5.16,1.15,15.85,6.95,1.65.9,3.52.97,4.7-.66.68-.94,1.76-1.33,2.61-1.98,1.74-1.34,3.45-1.94,5.46-2.72,5.97-2.32,11.84-4.53,18.26-5.66.84-.15,2.67.59,3.09-.28,1.81-4.08,2.94-8.34,5.4-12.04,2.86-4.3,6.32-8.09,10.35-11.24,2.32-1.82,4.46-3.55,7.04-4.99l8.9-4.97c3.48-1.94,6.83-3.83,10.56-5.27l11.98-4.61c2.51-.97,5.23-1.83,7.96-2.01,3.69-.25,6.86-1.48,10.3-2.46,2.68-.76,4.83-1.7,6.88-3.63s4.72-3.47,6.9-5.41l4.28-3.82,6.51-4.69c3.67-2.64,7.17-5.01,9.83-8.75,3.94-5.54,10.83-8.66,16.84-11.33,2.36-1.05,8.73-1.14,9.97-.87,7.12,1.59,13.63,6.61,14.09,14.26.56,9.28.44,17.08-7.93,22.81l-7.12,4.86c-2.55,1.74-4.8,3.7-7.63,5.11-2.4,1.2-4.95,2.04-7.18,3.59-5.04,3.51-7.81,3.33-13.24,8.38-2.82,2.62-7.57,5.47-9.3,7.32-3.08,3.3-5.85,6.71-8.58,10.3-5.1,6.72-5.46,5.12-9.62,12.45-1.49,2.62-2.9,5.1-4.11,7.86-.7,1.61-1.75,2.96-2.18,4.77-.77,3.24-2.01,6.19-3.51,9.17-.29.57-.88,1.82-.38,2.38.76.86,1.65,2.21,2.71,2.64,3.93,1.6,7.94,2.61,11.63,4.67s4.53,4.01,6.5,5.44c2.18,1.57,3.8,3.64,5.53,5.68l2.82,3.32c.95,1.12,1.8,2.03,2.95,2.9,2.51,1.89,3.22,5.26,5.27,7.51,2.31,2.53,5.37,4.26,7.49,7.17,1.5,2.05,2.71,4.35,4.65,6.11,1.77,1.6,4.15,2.52,5.68,4.27,2.14,2.44,7.5,8.83,8.94,11.18,1.98,3.24,3.53,6.65,5.92,9.56l2.97,3.61,2.12,3.27c-1.24-1.91,17.3,22.15,16.55,21.32,1.88,2.07,4.34,3.55,6.41,5.52l7.11,6.76,6.18,5.77,3.99,3.8c3.58,3.41,7.36,6.43,10.34,10.45,1.81,2.45,3.96,3.91,6.33,5.66,8.3,6.13,4.8,2.98,10.06,11.91,2.19,3.71,2.36,8.44,2.21,12.59-.09,2.42-.43,4.58-2.55,6.16-4.81,3.59-11.01,5.38-17.09,4.46-1.09-.17-2.5-.34-3.45-.79-3.66-1.74-6.87-4.05-9.93-6.64-3.46-2.94-7.14-5.22-11.1-7.45-2.61-1.47-4.24-3.96-6.53-5.81-3.38-2.72-8.02-7.9-9.42-12.2-4.61-4.4-7.55-9.76-11.67-14.17l-3.75-4.02c-4.15-4.45-7.91-13.13-8.51-13.49-2.98-1.78-5.32-4.06-7.75-6.53-.7-.71-1.75-1.08-2.14-2.06-1.35-3.39-7.09,1.45-16.75-13.75-.53-.84-.75-2.18-1.08-3.09-2.09-5.72-1.39-9.41-5.27-17.25-.71-1.43-.67-3.61-1.82-4.64-5.57-2.87-8.81-4.4-13.41-8.71l-5.34-4.99-4.59-6.67c-1.02-1.49-2.56-2.52-4.16-3.67-3.04-2.18-7.72-3.4-11.56-2.51-2.05.48-4.35,2.3-5.76,3.71-5.55,5.52-7.17,12.06-9.83,14.57-.88.83-1.56,2.17-2.5,2.87-17.83,13.39-22.87,9.26-26.36,10.42-.91.3-4.95,3.8-6.82,5.06Z"/>
  </g>
</svg>