<?xml version="1.0" encoding="UTF-8"?>
<svg id="Ebene_2" data-name="Ebene 2" xmlns="http://www.w3.org/2000/svg" viewBox="0 0 470.05 255">
  <defs>
    <style>
      .cls-1 {
        fill: none;
      }
    </style>
  </defs>
  <g id="Ebene_2-2" data-name="Ebene 2">
    <path class="cls-1" d="M282.77,243.46c-9.66,5.62-12.97,2.82-17.67,6.32s-11.26,6.82-17.22,4.35c-2.15.8-4.32-.17-5.76-1.42-4.48-3.88,1.4-6.8-6.01-14.94-4.12-4.53-4.64-9.02-7.82-13.08-1.85-2.36-2.79-5.31-4.79-7.58-3.91-4.43-7.38-8.85-10.2-14.13-1.93-3.6-3.54-7.33-5.96-10.61-1.36-1.85-3.1-3.3-4.6-5.06-3.69-4.32-9.87-6.31-12.67-9.31-.91-.97-1.46-2.45-2.54-3.24-2.07-1.52-4.44-2.44-6.58-3.83-3.98-2.59-9.17-7.87-12.79-11.17-.92-.84-1.69-1.98-2.65-2.72l-8.04-6.24c-3.68-2.86-7.54-5.23-10.32-9.05-1.27-1.75-3.46-2.4-5.11-3.75-3.73-3.04-4.17-4.96-7.18-7.12-2.76-1.98-7-6.97-8.48-7.53-3.26-1.23-6.91-.63-10.24-1.48-4.33-1.11-8.66-1.49-12.79-3.11l-2.51-.98c-3.01-1.17-5.49-3.16-8.2-4.82l-5.53-3.37-7.18-4.77c-2.72-1.81-5.63-2.11-8.75-2.62-1.35-.22-2.95-1.26-4.17-1.88-4.04-2.04-7.89-3.97-12.04-5.71l-10.88-4.56c-3.21-1.35-6.53-2.41-9.26-4.63s-5.92-1.19-8.49-2c-3.96-1.25-7.31-3.42-11.05-5.11-6.58-2.97-8.57-3.18-12.48-9.13-2.04-3.1-2.49-5.53-2.65-9.07L0,56.86c-.06-1.39.29-6.48,1.05-8.09,1.51-3.23,2.64-6.78,5.34-9.36,4.12-3.93,13.37-6.67,19.02-7.91,3.88-.85,7.32-1.85,11.04-3.26l12.07-4.57c4.71-1.78,8.6-1.73,12.78-3.49,5.97-2.52,11.89-4.15,18.29-5.29,3.17-.56,11.04-3.9,15.11-4.1,4.43-.22,8.67-.46,13.04-1.66,1.69-.47,3.59-.66,5.35-.76,2.79-.17,5.08-1.31,7.7-1.98l10.08-2.59c1.83-.47,3.91-.08,5.74-.65C139.86,2.12,142.93-.05,146.42,0l3.05.04c2.32.03,4.18,1.38,5.66,2.94,2.91,3.06,9.14,11.76,10.66,15.55,1.66,4.13,3.64,8.04,5.02,12.25,1.61,4.93,3.4,9.51,5.65,14.15,1.76,3.61,2.75,10.12,6.35,12.17,3.91,2.23-.2,4.19,9.82,5.68,2.21.33,4.06.27,6.24.43,7.28.55,6.89,2.2,15.38,1.75,10.04-.52,14.85,2.54,25.12,3.12,1.39.08,9.04.65,9.68.81,3.86.96,7.61.89,11.45,1.34l10.67,1.25,11.06.22,2.36.02,21.96,2.51c12.74,1.46,8.74,3.05,21.36,5.81l18.6,4.07c-.3-.07,5.48-.08,10.15,1.1,3.96,1,7.98,1.41,11.83,2.9,4.73,1.84,9.34,3.33,14.22,4.7,2.84.8,5.44,2.16,8.44,2.32,3.69.2,7.16.79,10.86,1.24s6.99,2.04,10.37,3.41c5.6,2.26,11,3.74,16.98,4.71s11.44,2.75,17.38,3.33c5.27.51,13.4,2.37,18.06,4.37,1.56.67,2.11,1.99,3.03,3.18,1.59,2.06,2.02,4.18,2.2,6.75.22,3.18-.91,5.27-3.28,7.26l-4.62,3.86c-2.32,1.94-4.03,4.57-6.75,5.95l-9.22,4.69c-2.65,1.35-8.75,6.42-10.95,7.63-5.94,3.25-11.35,6.94-16.9,10.83-8.04,5.64-14.76,9.56-22.91,15.33-3.28,2.33-6.57,4.12-10.28,5.57s-10.28,5.03-12.38,5.71l-9.97,3.24c-3.58,1.16-7.56,1.14-10.67,2.8l-2.77,1.48c-1.39.74-3.05.84-4.4,1.8l-8.09,5.75c-3.76,2.67-7.51,5.03-11.26,7.71l-11.68,8.35c-2.04,1.46-3.79,3.14-5.63,4.82l-7.66,7.02c-3.25,2.98-6.73,5.07-10.49,7.26l-7.34,4.27Z"/>
  </g>
</svg>