<?xml version="1.0" encoding="UTF-8"?>
<svg id="Ebene_2" data-name="Ebene 2" xmlns="http://www.w3.org/2000/svg" viewBox="0 0 494.75 294.39">
  <defs>
    <style>
      .cls-1 {
        fill: none;
      }
    </style>
  </defs>
  <g id="Ebene_2-2" data-name="Ebene 2">
    <path class="cls-1" d="M371.48,266.11c-11.67-2.38-15.88-6.84-21.2-8.52-4.6-1.45-9.28-2.1-13.64-4.23l-11.93-5.83c-8.5-4.15-16.35-2.26-26.56-7.14-12.39-5.93-12.99-2.76-21.57-4.72-6.13-1.4-11.83-3.62-17.71-5.9-3.4-1.32-6.53-2.92-10.07-3.83-1.47-.38-3.13.33-4.56-.12-2.42-.77-4.9-.86-7.2-1.73l-4.71-1.8c-2.8-1.07-5.86-.22-8.64.99l-7.51,3.27c-2.91,1.27-5.47,2.61-8.19,4.22-3.91,2.32-8.41,3.42-12.69,5.06l-15.09,5.77c-5.66,2.16-35.04,8.8-40.54,8.94l-9.45.24c-.99.03-2.27.04-3.26-.04-1.16-.09-2.1.24-3.24.24l-31.48-.07-10.4-.39c-3.11-.12-11.63-4.37-14.54-5.99s-5.95-2.61-9.08-3.72l-15.1-5.38c-2.89-1.03-9.79-3.76-11.94-5.47-2.98-2.37-5.21-3.72-7.96-5.95-4.05-3.3-12.82-11.35-13.97-16.12l-1.82-7.55-3.86-12.79c-1.39-4.6-3.17-8.74-3.4-13.65-.2-4.33-.39-16.36.32-20.29l2.96-16.25c1.41-7.77,4.28-15.82,7.69-22.87l4.04-8.35c2.75-5.68,5.49-11.21,9.3-16.23l5.86-7.72,5.32-5.47c3.26-3.35,6.12-6.65,9.66-9.73s6.71-6.64,10.68-9.39l9.37-6.49c1.94-1.34,3.76-2.58,5.48-4.24l10.97-10.61c1.62-1.57,3.26-2.98,5.11-4.21l12.76-8.51c3.12-2.08,6.43-3.27,9.62-5.12l12.96-7.52c3.18-1.84,6.33-2.47,9.68-3.57,4.83-1.6,9.29-3.42,14.49-3.62,8.33-.32,18.33-3.44,21.94-3.48,7.98-.09,15.87-.51,23.82.14,3.83.31,7.47,1.6,11.3,2.28,9.28,1.65,20.15,8.76,23.12,9.5,3.32.83,6.19,2.15,9.33,3.45,3.77,1.56,7.24,3.17,10.31,6.02,4.04,3.76,8.02,6.1,10.51,10.26l8.7,14.57c1.52,2.55,2.3,5.17,3.37,7.91,4.08,10.38,7.72,20.89,8.44,32.08.25,3.93.38,7.76,1.64,11.56.49,1.5.43,3.03.57,4.52l.34,3.89c.4,4.5,2.05,8.68,2.03,13.31v3.05s.02,3.4.02,3.4c.03,2.74-.07,3.76.11,6.55l.36,5.8c.16,2.52.34,4.73,1.05,7.16.97,3.35,1.46,6.8,2.23,10.23.65,2.88.62,5.56.88,8.4.38,4.23,1.06,8.24,1.95,12.36.6,2.77,2.56,5.04,3.45,7.64,1.57,4.6,2.22,1.92,7.59,8.4,2.93,3.54,6.91,6.53,11.61,7.24,8.41,1.27,16.15,3.98,24.04,6.91,2.7,1,5.13,2.15,7.86,3.02l6.76,2.14c3.93,1.24,7.68,2.47,11.65,3.46l9.25,2.3c2.55.63,8.71,3.53,11.07,3.98,5.53,1.05,9.89,4,15.04,5.9l11.9,4.37,5.97,2.95,11.2,5.41,6.28,3.8c1.62.98,3,.77,4.64,1.24,7.76,2.22,14.54,6.3,21.64,9.95,3.36,1.72,6.83,2.66,10.33,4.08,5.47,2.22,10.73,4.58,16.36,6.36,1.66.53,2.84,1.54,4.21,2.34,1.84,1.08,2.71,2.42,3.73,4.11,1.14,1.87,1.57,3.25,1.58,5.55,0,1.4.23,2.76.06,4.22-.7,5.81-2.59,5.74-5.8,9.02-1.69,1.73-3.55,2.26-5.84,2.82-2.61.63-9.42.65-12.11.4l-3.88-.36c-3.17-.3-6.18-1.55-9.41-1.69-4.74-.21-8.94-1.22-13.11-3.62-13.05-7.5-9.88-1.77-25.36-7.86l-10.81-4.26-11.42-3.42c-8.49-2.54-16.72-5.14-25.46-6.92Z"/>
  </g>
</svg>