<?xml version="1.0" encoding="UTF-8"?>
<svg id="Ebene_2" data-name="Ebene 2" xmlns="http://www.w3.org/2000/svg" viewBox="0 0 358.74 397.6">
  <defs>
    <style>
      .cls-1 {
        fill: none;
      }
    </style>
  </defs>
  <g id="Ebene_2-2" data-name="Ebene 2">
    <path class="cls-1" d="M140.95,382.15c-1.58-1.06-3.5-1.01-5.23-.99-3.43.04-6.44-1.17-9.74-1.69l-15.73-2.47-8.46-.18-3.84-.4c-2.44-.26-4.67-1.41-6.86-2.41-5.3-2.4-13.35-4.57-17.35-7.77-2.65-2.13-5.5-4.64-6.98-7.7l-5.84-12.08-4.89-9.95c-.98-2-1.07-4.24-2.37-6.19-.82-1.23-.27-3.19-1.03-4.48-3.27-5.59-6.94-9.09-10.57-15.78-2.31-4.25-3.09-8.92-4.25-13.61s-2.61-9.32-4.32-13.93l-5.64-15.18c-2.33-6.26-5.41-11.96-8.24-17.96l-3.85-8.16c-3.45-7.3-5.77-14.87-5.28-23.01l-3.69-12.54-5.72-29.12c-.3-1.55-.95-12.41-.99-14.52l-.06-3.48c-.02-1.16,0-2.42,0-3.63v-3.14s0-3.65,0-3.65v-3.14s0-3.65,0-3.65v-3.12c.01-1.4-.07-2.38.21-3.78,1.6-7.91,4.1-15.22,7.73-22.46,2.62-5.22,6.56-9.4,11.09-13.1,2.21-1.8,4.2-3.76,6.55-5.28,5.56-3.59,11.55-5.22,17.94-6.41,4.5-.84,8.62-2.45,13.24-2.83,3.13-.26,6.17-.94,9.3-1.21l4.74-.41,21.16-.02c1.24,0,2.17.27,3.48.12,1.42-.16,10.14,1.33,12,1.83,3.58.97,6.47,3.38,9.75,5l7.67,3.8,8.52,2.99c1.72.6,3.06,1.81,4.85,2.38,1.4.45,2.97,1.28,3.66,2.65,2.26,4.45,10.8,12.84,15.74,15.22,2.14,1.03,5.07-2.71,4.43-4.58-.73-2.11-1.94-3.18-3.15-4.71l-7.14-9c-4.9-6.18-4.02-6.56-5.57-13.58-1.15-5.23-1.89-10.31-2.16-15.64-.09-1.82-.99-3.58-.94-5.49.1-3.59-.79-7.54.01-11.26,1.82-8.38,5.69-16.51,10.96-23.11,2.85-3.56,6.26-6.04,9.76-8.6,6.75-4.94,14.71-12.85,21.45-15.46,2.85-1.11,5.83-1.45,8.77-2.32,4.12-1.22,8.22-2.4,12.56-2.66l4.72-.28c-.9.05,7.2,0,6.76,0l3.31.06c1.13.02,2.11-.11,3.2-.05l5.83.3c5.84.3,11.08,2.49,16.71,3.42s10.61,1.51,15.62,4.1c1.94,1,4.14,1.47,6.24,2.25,8.83,3.28,17.61,5.77,26.75,8.11,4.71,1.21,9.57,5.97,13.52,9.34,3.18,2.72,13.58,10.37,14.47,12.68l2.81,7.34,7.03,10.44c1.22,1.81,1.91,3.82,2.71,5.82l4.38,10.87c.12.29,1.24,15.07,1.28,16.43.12,3.63.47,7.05.94,10.57.54,4.01,1.86,6.74,4.23,9.94s4.07,6.91,6.24,10.24c1.57,2.41,2.52,4.85,2.59,7.7l.41,16.24c.1,3.9,2.39,7.49,2.29,11.56-.35,13.74,1.61,15.49-3.42,28.49-2.15,5.56-5.96,10.2-10.26,14.28-1.02.97-1.88,2.21-3.01,2.94-2.81,1.84-4.4,4.44-5.04,7.78-.85,4.46-1.31,8.88,0,13.38.15,8.11,1.45,15.93,2.57,23.99.7,4.99.79,21.67-.15,26.3-.28,1.39-.94,2.98-1.65,4.21l-4.49,7.79c-1.11,1.93-1.94,4.24-3.42,5.93-4.01,4.56-5.79,6.5-10.73,10.05-2.49,1.78-4.57,3.93-6.24,6.51-.48.75-.23,1.69-.48,2.51-1.43,4.68-2.98,9.17-3.74,14.03l-2.6,16.53c-.88,5.6-2.9,10.61-4.93,15.81-1.49,3.82-3.52,7.02-6.37,9.9-4.11,4.17-7.73,8.62-12.54,12.04-4.54,3.22-8.74,6.26-13.76,8.81-6.79,3.45-14.21,5.46-21.81,6.62-2.07.32-3.96.23-5.95.45l-3.45.39-12.72,1.47-3.41.02h-3.39s-3.39,0-3.39,0c-1.8,0-6.93-.14-8.52-.3l-17.39-1.76-7.21-.45-5.98-.37c-6.4-.4-18.46-1.94-23.78-5.52l-10.47-7.03Z"/>
  </g>
</svg>